
<svg width="400" height="400" xmlns="http://www.w3.org/2000/svg">
 <g>
  <path id="shade" d="m199.66667,90.33372c0,0 23.33325,-0.66666 41.33318,7.99997c17.99994,8.66664 34.66655,23.33325 34.33251,22.99921c0.33404,0.33404 63.66715,-62.3324 63.3331,-62.66644c0.33405,0.33404 29.66727,30.33393 44.33389,65.00048c14.66661,34.66654 14.66661,75.99973 14.33257,75.66569c0.33404,0.33404 -88.33231,-0.33263 -88.66635,-0.66667c0.33404,0.33404 1.66737,23.00063 -7.66593,41.66723c-9.3333,18.6666 -24.66658,36.66653 -25.00062,36.33249c0.33404,0.33404 63.66715,63.00049 63.33311,62.66645c0.33404,0.33404 -25.66587,25.00062 -62.99907,42.33389c-37.3332,17.33327 -76.66639,15.99994 -77.00043,15.6659c0.33404,0.33404 -0.33263,-88.33231 -0.66667,-88.66635c0.33404,0.33404 -20.33255,-0.33262 -41.66581,-8.3326c-21.33325,-7.99997 -33.99988,-23.99991 -34.33392,-24.33395c0.33404,0.33404 -62.99906,63.66715 -63.33311,63.33311c0.33405,0.33404 -27.66585,-29.66586 -42.33247,-64.99906c-14.66661,-35.33321 -15.99994,-75.33307 -16.33399,-75.66711c0.33405,0.33404 89.66706,1.00071 89.33302,0.66667c0.33404,0.33404 1.00071,-21.66589 9.00068,-41.66582c7.99997,-19.99992 23.99991,-35.3332 23.66587,-35.66724c0.33404,0.33404 -62.3324,-62.99907 -62.66644,-63.33311c0.33404,0.33404 28.33394,-26.9992 63.66715,-41.66581c35.33321,-14.66662 75.99973,-14.66662 75.66569,-15.00066c0.33404,0.33404 0.33404,88.33373 0.33404,88.33373z" fill-opacity="null" stroke-opacity="null" stroke-width="1.5" stroke="#000" fill="#fff"/>
 </g>
</svg>
